<svg width="32" height="32" viewBox="0 0 32 32" fill="none" xmlns="http://www.w3.org/2000/svg">
<g clip-path="url(#clip0_4370_1081)">
<path d="M21.5068 28.8753C19.7798 29.6139 17.917 29.9997 16 29.9997C8.26764 29.9997 2 23.7318 2 15.9997C2 12.9256 2.99227 10.0042 4.79943 7.59948L3.20057 6.39795C1.13521 9.14629 0 12.4885 0 15.9997C0 24.8363 7.16305 31.9997 16 31.9997C18.1889 31.9997 20.3191 31.5585 22.2932 30.7141L21.5068 28.8753Z" fill="#101C3F"/>
<path d="M17 15.5194V9H15V16.4806L20.3753 20.7809L21.6247 19.2191L17 15.5194Z" fill="#0B64DD"/>
<path d="M17 6V4H15V6H17Z" fill="#0B64DD"/>
<path d="M15 26V28H17V26H15Z" fill="#0B64DD"/>
<path d="M6 15H4V17H6V15Z" fill="#0B64DD"/>
<path d="M26 17H28V15H26V17Z" fill="#0B64DD"/>
<path d="M5.8287 3.3877L0.80957 6.58864L6.09185 9.33266L5.8287 3.3877Z" fill="#101C3F"/>
<path d="M10.4925 3.12443C12.2195 2.38582 14.0823 2 15.9993 2C23.7317 2 29.9993 8.26793 29.9993 16C29.9993 19.0741 29.007 21.9955 27.1999 24.4002L28.7987 25.6018C30.8641 22.8534 31.9993 19.5112 31.9993 16C31.9993 7.16338 24.8363 0 15.9993 0C13.8104 0 11.6802 0.441207 9.70605 1.28557L10.4925 3.12443Z" fill="#101C3F"/>
<path d="M26.1714 28.6124L31.1905 25.4115L25.9082 22.6675L26.1714 28.6124Z" fill="#101C3F"/>
</g>
<defs>
<clipPath id="clip0_4370_1081">
<rect width="32" height="32" fill="white"/>
</clipPath>
</defs>
</svg>
